<svg width="45" height="65" viewBox="0 0 45 65" fill="none" xmlns="http://www.w3.org/2000/svg">
<ellipse cx="21" cy="30.0379" rx="21" ry="20.6818" fill="#101010"/>
<path d="M27.4483 34.9042L32 37.1692C30.8906 38.5894 29.4794 39.7256 27.7664 40.5778C26.0697 41.43 24.2262 41.8561 22.2358 41.8561C19.9844 41.8561 17.9288 41.3253 16.069 40.2639C14.2254 39.2024 12.749 37.7821 11.6396 36.003C10.5465 34.209 10 32.2281 10 30.0603C10 28.4158 10.3181 26.8834 10.9544 25.4631C11.5907 24.0279 12.4635 22.772 13.5729 21.6956C14.6986 20.6043 16.0037 19.7521 17.4883 19.1391C18.9729 18.5262 20.5554 18.2197 22.2358 18.2197C24.2262 18.2197 26.0697 18.6458 27.7664 19.4979C29.4794 20.3501 30.8906 21.4938 32 22.929L27.4483 25.194C26.7631 24.4465 25.9637 23.8784 25.0501 23.4897C24.1364 23.086 23.1984 22.8842 22.2358 22.8842C20.898 22.8842 19.6826 23.2206 18.5895 23.8933C17.5128 24.5511 16.6563 25.4257 16.02 26.5171C15.4001 27.5935 15.0901 28.7746 15.0901 30.0603C15.0901 31.3311 15.4082 32.5121 16.0445 33.6035C16.6808 34.6799 17.5373 35.547 18.614 36.2049C19.7071 36.8627 20.9143 37.1916 22.2358 37.1916C23.2473 37.1916 24.2099 36.9823 25.1235 36.5637C26.0371 36.1451 26.812 35.5919 27.4483 34.9042Z" fill="white"/>
</svg>
